<svg xmlns="http://www.w3.org/2000/svg" width="130" height="45" viewBox="0 0 500 184" version="1.1"><path d="M 105.378 50.386 C 101.236 52.257, 99 55.643, 99 60.048 C 99 64.639, 101.900 67.457, 108.267 69.052 C 113.834 70.446, 115.021 71.687, 111.895 72.843 C 109.839 73.604, 105.524 73.103, 100.464 71.517 C 98.826 71.003, 98.085 71.599, 96.671 74.563 C 95.705 76.590, 95.046 78.356, 95.207 78.488 C 98.640 81.310, 107.654 82.522, 113.958 81.010 C 120.417 79.460, 124 75.500, 124 69.909 C 124 66.539, 123.531 65.684, 120.750 63.988 C 118.963 62.898, 116.054 61.732, 114.286 61.398 C 110.290 60.643, 108.014 58.315, 110.383 57.406 C 112.179 56.717, 118.662 57.302, 121.050 58.369 C 123.113 59.290, 126.686 52.286, 125.009 50.609 C 123.297 48.897, 109.034 48.735, 105.378 50.386 M 129.986 51.250 C 129.978 52.487, 130.727 59.688, 131.651 67.250 L 133.330 81 139.154 81 L 144.978 81 149.205 72.750 L 153.432 64.500 154.316 72.750 L 155.200 81 161.028 81 L 166.857 81 174.928 65.333 C 179.368 56.716, 183 49.492, 183 49.280 C 183 49.069, 180.652 49.031, 177.782 49.198 L 172.564 49.500 167.879 58.409 L 163.193 67.319 162.546 60.409 C 161.432 48.529, 161.612 48.850, 156.218 49.197 L 151.500 49.500 146.869 58.430 L 142.237 67.359 141.577 61.930 C 141.214 58.943, 140.671 54.813, 140.370 52.750 L 139.824 49 134.912 49 C 130.489 49, 129.999 49.224, 129.986 51.250 M 195.196 51.750 C 192.036 56.229, 177 80.005, 177 80.523 C 177 80.785, 179.485 81, 182.521 81 C 187.441 81, 188.167 80.727, 189.182 78.500 C 190.220 76.223, 190.876 76, 196.552 76 C 202.365 76, 202.825 76.168, 203.411 78.500 C 203.975 80.748, 204.540 81, 209.019 81 C 212.609 81, 214 80.611, 214 79.608 C 214 78.338, 208.624 54.871, 207.390 50.750 C 206.984 49.395, 205.767 49, 202.001 49 C 197.831 49, 196.859 49.393, 195.196 51.750 M 222.521 50.250 C 222.293 50.938, 220.795 58.138, 219.193 66.250 L 216.280 81 221.621 81 C 226.635 81, 226.999 80.832, 227.564 78.250 C 228.701 73.064, 228.780 73, 234.067 73 C 243.563 73, 249.988 67.710, 249.996 59.885 C 250.001 55.213, 246.950 51.358, 242.205 50.040 C 236.815 48.543, 223.040 48.690, 222.521 50.250 M 265.196 51.750 C 262.036 56.229, 247 80.005, 247 80.523 C 247 80.785, 249.485 81, 252.521 81 C 257.441 81, 258.167 80.727, 259.182 78.500 C 260.220 76.223, 260.876 76, 266.552 76 C 272.365 76, 272.825 76.168, 273.411 78.500 C 273.975 80.748, 274.540 81, 279.019 81 C 282.609 81, 284 80.611, 284 79.608 C 284 78.338, 278.624 54.871, 277.390 50.750 C 276.984 49.395, 275.767 49, 272.001 49 C 267.831 49, 266.859 49.393, 265.196 51.750 M 292.521 50.250 C 292.293 50.938, 290.795 58.138, 289.193 66.250 L 286.280 81 291.549 81 L 296.818 81 298.063 74.036 C 298.747 70.206, 299.635 67.275, 300.036 67.522 C 300.437 67.770, 302.505 70.896, 304.632 74.469 C 308.482 80.936, 308.521 80.965, 313.044 80.983 L 317.588 81 320.443 66.250 C 322.014 58.138, 323.515 50.912, 323.778 50.193 C 324.143 49.198, 322.979 48.960, 318.896 49.193 L 313.534 49.500 311.988 56.500 L 310.442 63.500 305.741 56.250 C 301.181 49.216, 300.919 49, 296.989 49 C 294.636 49, 292.763 49.524, 292.521 50.250 M 328.540 51.121 C 327.191 56.829, 323 78.400, 323 79.638 C 323 81.680, 342.791 81.532, 347.768 79.452 C 355.109 76.385, 359 70.893, 359 63.597 C 359 53.227, 354.429 49.869, 339.407 49.201 C 329.214 48.747, 329.097 48.768, 328.540 51.121 M 231.582 59.186 C 229.935 64.540, 230.084 65, 233.471 65 C 239.668 65, 241.281 58.770, 235.235 58.186 C 233.196 57.989, 231.836 58.362, 231.582 59.186 M 337.527 60.250 C 336.083 66.607, 335.046 71.580, 335.024 72.250 C 334.982 73.567, 340.994 73.054, 344.035 71.482 C 345.733 70.604, 347.265 68.812, 347.668 67.232 C 349.289 60.883, 347.487 58, 341.897 58 C 338.713 58, 337.949 58.394, 337.527 60.250 M 197.715 63.471 C 195.536 68.041, 195.529 68, 198.500 68 C 200.447 68, 200.984 67.502, 200.930 65.750 C 200.891 64.513, 200.538 62.684, 200.145 61.688 C 199.545 60.167, 199.153 60.455, 197.715 63.471 M 267.715 63.471 C 265.536 68.041, 265.529 68, 268.500 68 C 270.447 68, 270.984 67.502, 270.930 65.750 C 270.891 64.513, 270.538 62.684, 270.145 61.688 C 269.545 60.167, 269.153 60.455, 267.715 63.471 M 108.500 91.662 C 101.137 95.543, 98 100.704, 98 108.933 C 98 113.059, 98.523 114.526, 100.999 117.346 C 105.917 122.947, 116.438 124.353, 124.102 120.433 C 126.167 119.376, 126.940 117.924, 127.852 113.384 C 129.548 104.936, 129.573 105, 124.559 105 C 120.134 105, 120.115 105.015, 119.279 109.242 C 118.386 113.756, 116.893 114.692, 112.386 113.561 C 106.775 112.153, 107.366 102.414, 113.246 99.373 C 116.237 97.826, 118.691 98.092, 124.624 100.606 C 125.242 100.868, 127.168 99.888, 128.903 98.428 C 132.418 95.470, 132.019 94.095, 126.872 91.434 C 123.148 89.508, 112.331 89.642, 108.500 91.662 M 136.508 92.250 C 135.169 97.936, 131 119.420, 131 120.638 C 131 121.607, 132.451 122, 136.031 122 C 141.213 122, 141.301 121.928, 142.436 116.750 C 143.269 112.947, 145.132 113.316, 147.500 117.753 L 149.500 121.500 160.614 121.781 C 171.542 122.058, 171.757 122.020, 173.387 119.531 C 174.855 117.292, 175.733 117, 181.004 117 C 186.525 117, 187.008 117.183, 187.589 119.500 C 188.160 121.773, 188.698 122, 193.509 122 L 198.802 122 197.353 115.750 C 196.557 112.313, 194.902 105.225, 193.677 100 L 191.449 90.500 186.086 90.500 L 180.723 90.500 171.111 105.701 C 165.825 114.061, 161.245 120.924, 160.934 120.951 C 160.623 120.978, 159.328 119.149, 158.057 116.888 C 156.163 113.517, 155.994 112.618, 157.123 111.903 C 157.880 111.423, 158.844 111.024, 159.265 111.015 C 160.885 110.983, 163.993 104.329, 163.996 100.885 C 164.004 93.195, 158.385 90.015, 144.769 90.006 C 137.573 90, 137.001 90.156, 136.508 92.250 M 206.535 92.144 C 205.187 97.847, 201 119.403, 201 120.638 C 201 121.707, 203.427 122, 212.288 122 C 222.009 122, 224.194 121.688, 228.025 119.750 C 233.707 116.877, 235.414 112.371, 232.366 108.289 C 230.417 105.678, 230.418 105.673, 232.708 103.383 C 235.803 100.288, 235.687 95.994, 232.424 92.929 C 230.071 90.718, 228.870 90.478, 218.470 90.148 C 207.210 89.791, 207.086 89.812, 206.535 92.144 M 215.627 99.529 C 214.650 102.076, 214.742 102.134, 219.250 101.807 C 222.224 101.592, 223.500 101.050, 223.500 100 C 223.500 97.775, 216.462 97.354, 215.627 99.529 M 145.628 100.528 C 144.216 104.207, 144.913 106, 147.750 105.985 C 151.615 105.963, 153.230 104.663, 152.837 101.887 C 152.576 100.036, 151.799 99.432, 149.378 99.196 C 147.211 98.985, 146.063 99.393, 145.628 100.528 M 181.683 104.959 C 179.479 108.691, 179.541 109, 182.500 109 C 184.600 109, 185 108.529, 185 106.059 C 185 102.003, 183.687 101.567, 181.683 104.959 M 213 112.055 C 213 113.882, 213.526 114.076, 217.741 113.805 C 221.313 113.575, 222.564 113.069, 222.814 111.750 C 223.095 110.270, 222.365 110, 218.073 110 C 213.622 110, 213 110.252, 213 112.055 M 183.409 141.443 C 181.720 142.678, 181.741 142.822, 183.812 144.115 C 186.608 145.861, 186.648 147.340, 183.875 146.460 C 182.445 146.006, 181.973 146.148, 182.434 146.893 C 183.327 148.338, 186.685 148.318, 187.585 146.863 C 187.977 146.228, 187.252 144.944, 185.945 143.958 L 183.602 142.191 186.051 141.837 C 187.983 141.557, 188.151 141.340, 186.847 140.810 C 185.938 140.440, 184.391 140.725, 183.409 141.443 M 257.250 140.731 C 255.515 141.336, 255.682 143.941, 257.500 144.638 C 259.907 145.562, 259.229 147.204, 256.750 146.455 C 255.015 145.931, 254.762 146.051, 255.644 146.981 C 257.166 148.586, 260.398 147.886, 260.787 145.868 C 260.973 144.903, 260.176 143.971, 258.798 143.540 L 256.500 142.822 259 142.115 C 260.795 141.607, 261.077 141.251, 260 140.851 C 259.175 140.545, 257.938 140.491, 257.250 140.731 M 278.250 140.731 C 276.305 141.409, 276.779 143.795, 279 144.500 C 280.100 144.849, 281 145.607, 281 146.184 C 281 146.761, 280.100 146.998, 279 146.710 C 277.900 146.423, 277 146.595, 277 147.094 C 277 147.592, 278.125 148, 279.500 148 C 282.771 148, 282.963 144.453, 279.750 143.391 L 277.500 142.647 280 142.028 C 281.771 141.589, 282.062 141.246, 281 140.851 C 280.175 140.545, 278.938 140.491, 278.250 140.731 M 288.502 141.375 C 285.969 143.227, 286.902 147.416, 289.944 147.845 C 293.013 148.278, 295.332 145.489, 293.989 142.980 C 292.690 140.552, 290.502 139.912, 288.502 141.375 M 192.660 141.769 C 193.298 142.174, 194.018 143.855, 194.260 145.503 L 194.700 148.500 194.850 145.323 C 194.949 143.222, 195.593 141.992, 196.750 141.689 C 197.713 141.438, 196.925 141.187, 195 141.131 C 193.075 141.076, 192.022 141.363, 192.660 141.769 M 202.327 144 C 202.476 147.021, 202.842 147.500, 205 147.500 C 207.158 147.500, 207.524 147.021, 207.673 144 C 207.841 140.593, 207.828 140.580, 207.163 143.500 C 206.782 145.175, 205.826 146.500, 205 146.500 C 204.174 146.500, 203.218 145.175, 202.837 143.500 C 202.172 140.580, 202.159 140.593, 202.327 144 M 213 144.500 C 213 147.989, 213.123 148.115, 216.250 147.813 C 219.125 147.536, 219.500 147.154, 219.500 144.500 C 219.500 141.846, 219.125 141.464, 216.250 141.187 C 213.123 140.885, 213 141.011, 213 144.500 M 225 144.500 C 225 147.685, 225.248 147.988, 227.750 147.864 C 230.108 147.747, 230.179 147.666, 228.250 147.294 C 227.012 147.056, 226 146.473, 226 146 C 226 145.527, 227.012 144.944, 228.250 144.706 L 230.500 144.272 228.250 144.136 C 227.012 144.061, 226 143.581, 226 143.070 C 226 142.558, 227.012 141.944, 228.250 141.706 C 230.179 141.334, 230.108 141.253, 227.750 141.136 C 225.248 141.012, 225 141.315, 225 144.500 M 235.150 144.750 C 235.281 148.026, 235.354 148.132, 235.732 145.587 L 236.164 142.673 238.546 145.587 L 240.928 148.500 240.864 144.500 C 240.812 141.185, 240.679 140.928, 240.089 143 L 239.377 145.500 238.154 143.250 C 236.315 139.871, 234.981 140.537, 235.150 144.750 M 246.660 141.769 C 247.298 142.174, 248.018 143.855, 248.260 145.503 L 248.700 148.500 248.850 145.323 C 248.949 143.222, 249.593 141.992, 250.750 141.689 C 251.713 141.438, 250.925 141.187, 249 141.131 C 247.075 141.076, 246.022 141.363, 246.660 141.769 M 299.160 144.250 C 299.011 147.743, 299.189 147.991, 301.750 147.864 C 304.018 147.751, 304.116 147.653, 302.309 147.302 C 300.717 146.993, 300.008 146.005, 299.719 143.688 C 299.336 140.625, 299.314 140.647, 299.160 144.250 M 308.327 144 C 308.476 147.021, 308.842 147.500, 311 147.500 C 313.158 147.500, 313.524 147.021, 313.673 144 C 313.841 140.593, 313.828 140.580, 313.163 143.500 C 312.782 145.175, 311.826 146.500, 311 146.500 C 310.174 146.500, 309.218 145.175, 308.837 143.500 C 308.172 140.580, 308.159 140.593, 308.327 144 M 319.660 141.769 C 320.298 142.174, 321.018 143.855, 321.260 145.503 L 321.700 148.500 321.850 145.333 C 321.933 143.592, 322.563 141.940, 323.250 141.662 C 323.938 141.385, 323.150 141.129, 321.500 141.094 C 319.850 141.059, 319.022 141.363, 319.660 141.769 M 329.252 144.500 C 329.263 146.700, 329.468 147.482, 329.707 146.238 C 329.946 144.994, 329.937 143.194, 329.687 142.238 C 329.437 141.282, 329.241 142.300, 329.252 144.500 M 335.095 142.386 C 334.173 143.497, 334.140 144.393, 334.966 145.936 C 336.953 149.648, 342.422 148.017, 341.837 143.887 C 341.434 141.034, 337.031 140.053, 335.095 142.386 M 347.150 144.750 C 347.281 148.026, 347.354 148.132, 347.732 145.587 L 348.164 142.673 350.546 145.587 L 352.928 148.500 352.864 144.500 C 352.812 141.185, 352.679 140.928, 352.089 143 L 351.377 145.500 350.154 143.250 C 348.315 139.871, 346.981 140.537, 347.150 144.750 M 215 144.500 C 215 146.482, 215.439 147.062, 216.750 146.810 C 217.713 146.624, 218.500 145.585, 218.500 144.500 C 218.500 143.415, 217.713 142.376, 216.750 142.190 C 215.439 141.938, 215 142.518, 215 144.500 M 288.364 143.493 C 288.018 144.396, 288.214 145.614, 288.800 146.200 C 290.324 147.724, 293.210 146.331, 292.812 144.265 C 292.369 141.963, 289.165 141.407, 288.364 143.493 M 336.170 144.170 C 336.390 145.723, 337.167 146.500, 338.500 146.500 C 341.478 146.500, 341.181 142.596, 338.170 142.170 C 336.231 141.895, 335.895 142.231, 336.170 144.170" stroke="none" fill="#ee871b" fill-rule="evenodd"/><path d="M -0 92.002 L -0 184.004 250.250 183.752 L 500.500 183.500 500.755 91.750 L 501.010 0 250.505 0 L 0 0 -0 92.002 M 0.479 92.500 C 0.479 143.100, 0.601 163.947, 0.750 138.826 C 0.898 113.705, 0.898 72.305, 0.750 46.826 C 0.601 21.347, 0.479 41.900, 0.479 92.500 M 105.378 50.386 C 101.236 52.257, 99 55.643, 99 60.048 C 99 64.639, 101.900 67.457, 108.267 69.052 C 113.834 70.446, 115.021 71.687, 111.895 72.843 C 109.839 73.604, 105.524 73.103, 100.464 71.517 C 98.826 71.003, 98.085 71.599, 96.671 74.563 C 95.705 76.590, 95.046 78.356, 95.207 78.488 C 98.640 81.310, 107.654 82.522, 113.958 81.010 C 120.417 79.460, 124 75.500, 124 69.909 C 124 66.539, 123.531 65.684, 120.750 63.988 C 118.963 62.898, 116.054 61.732, 114.286 61.398 C 110.290 60.643, 108.014 58.315, 110.383 57.406 C 112.179 56.717, 118.662 57.302, 121.050 58.369 C 123.113 59.290, 126.686 52.286, 125.009 50.609 C 123.297 48.897, 109.034 48.735, 105.378 50.386 M 129.986 51.250 C 129.978 52.487, 130.727 59.688, 131.651 67.250 L 133.330 81 139.154 81 L 144.978 81 149.205 72.750 L 153.432 64.500 154.316 72.750 L 155.200 81 161.028 81 L 166.857 81 174.928 65.333 C 179.368 56.716, 183 49.492, 183 49.280 C 183 49.069, 180.652 49.031, 177.782 49.198 L 172.564 49.500 167.879 58.409 L 163.193 67.319 162.546 60.409 C 161.432 48.529, 161.612 48.850, 156.218 49.197 L 151.500 49.500 146.869 58.430 L 142.237 67.359 141.577 61.930 C 141.214 58.943, 140.671 54.813, 140.370 52.750 L 139.824 49 134.912 49 C 130.489 49, 129.999 49.224, 129.986 51.250 M 195.196 51.750 C 192.036 56.229, 177 80.005, 177 80.523 C 177 80.785, 179.485 81, 182.521 81 C 187.441 81, 188.167 80.727, 189.182 78.500 C 190.220 76.223, 190.876 76, 196.552 76 C 202.365 76, 202.825 76.168, 203.411 78.500 C 203.975 80.748, 204.540 81, 209.019 81 C 212.609 81, 214 80.611, 214 79.608 C 214 78.338, 208.624 54.871, 207.390 50.750 C 206.984 49.395, 205.767 49, 202.001 49 C 197.831 49, 196.859 49.393, 195.196 51.750 M 222.521 50.250 C 222.293 50.938, 220.795 58.138, 219.193 66.250 L 216.280 81 221.621 81 C 226.635 81, 226.999 80.832, 227.564 78.250 C 228.701 73.064, 228.780 73, 234.067 73 C 243.563 73, 249.988 67.710, 249.996 59.885 C 250.001 55.213, 246.950 51.358, 242.205 50.040 C 236.815 48.543, 223.040 48.690, 222.521 50.250 M 265.196 51.750 C 262.036 56.229, 247 80.005, 247 80.523 C 247 80.785, 249.485 81, 252.521 81 C 257.441 81, 258.167 80.727, 259.182 78.500 C 260.220 76.223, 260.876 76, 266.552 76 C 272.365 76, 272.825 76.168, 273.411 78.500 C 273.975 80.748, 274.540 81, 279.019 81 C 282.609 81, 284 80.611, 284 79.608 C 284 78.338, 278.624 54.871, 277.390 50.750 C 276.984 49.395, 275.767 49, 272.001 49 C 267.831 49, 266.859 49.393, 265.196 51.750 M 292.521 50.250 C 292.293 50.938, 290.795 58.138, 289.193 66.250 L 286.280 81 291.549 81 L 296.818 81 298.063 74.036 C 298.747 70.206, 299.635 67.275, 300.036 67.522 C 300.437 67.770, 302.505 70.896, 304.632 74.469 C 308.482 80.936, 308.521 80.965, 313.044 80.983 L 317.588 81 320.443 66.250 C 322.014 58.138, 323.515 50.912, 323.778 50.193 C 324.143 49.198, 322.979 48.960, 318.896 49.193 L 313.534 49.500 311.988 56.500 L 310.442 63.500 305.741 56.250 C 301.181 49.216, 300.919 49, 296.989 49 C 294.636 49, 292.763 49.524, 292.521 50.250 M 328.540 51.121 C 327.191 56.829, 323 78.400, 323 79.638 C 323 81.680, 342.791 81.532, 347.768 79.452 C 355.109 76.385, 359 70.893, 359 63.597 C 359 53.227, 354.429 49.869, 339.407 49.201 C 329.214 48.747, 329.097 48.768, 328.540 51.121 M 231.582 59.186 C 229.935 64.540, 230.084 65, 233.471 65 C 239.668 65, 241.281 58.770, 235.235 58.186 C 233.196 57.989, 231.836 58.362, 231.582 59.186 M 337.527 60.250 C 336.083 66.607, 335.046 71.580, 335.024 72.250 C 334.982 73.567, 340.994 73.054, 344.035 71.482 C 345.733 70.604, 347.265 68.812, 347.668 67.232 C 349.289 60.883, 347.487 58, 341.897 58 C 338.713 58, 337.949 58.394, 337.527 60.250 M 197.715 63.471 C 195.536 68.041, 195.529 68, 198.500 68 C 200.447 68, 200.984 67.502, 200.930 65.750 C 200.891 64.513, 200.538 62.684, 200.145 61.688 C 199.545 60.167, 199.153 60.455, 197.715 63.471 M 267.715 63.471 C 265.536 68.041, 265.529 68, 268.500 68 C 270.447 68, 270.984 67.502, 270.930 65.750 C 270.891 64.513, 270.538 62.684, 270.145 61.688 C 269.545 60.167, 269.153 60.455, 267.715 63.471 M 108.500 91.662 C 101.137 95.543, 98 100.704, 98 108.933 C 98 113.059, 98.523 114.526, 100.999 117.346 C 105.917 122.947, 116.438 124.353, 124.102 120.433 C 126.167 119.376, 126.940 117.924, 127.852 113.384 C 129.548 104.936, 129.573 105, 124.559 105 C 120.134 105, 120.115 105.015, 119.279 109.242 C 118.386 113.756, 116.893 114.692, 112.386 113.561 C 106.775 112.153, 107.366 102.414, 113.246 99.373 C 116.237 97.826, 118.691 98.092, 124.624 100.606 C 125.242 100.868, 127.168 99.888, 128.903 98.428 C 132.418 95.470, 132.019 94.095, 126.872 91.434 C 123.148 89.508, 112.331 89.642, 108.500 91.662 M 136.508 92.250 C 135.169 97.936, 131 119.420, 131 120.638 C 131 121.607, 132.451 122, 136.031 122 C 141.213 122, 141.301 121.928, 142.436 116.750 C 143.269 112.947, 145.132 113.316, 147.500 117.753 L 149.500 121.500 160.614 121.781 C 171.542 122.058, 171.757 122.020, 173.387 119.531 C 174.855 117.292, 175.733 117, 181.004 117 C 186.525 117, 187.008 117.183, 187.589 119.500 C 188.160 121.773, 188.698 122, 193.509 122 L 198.802 122 197.353 115.750 C 196.557 112.313, 194.902 105.225, 193.677 100 L 191.449 90.500 186.086 90.500 L 180.723 90.500 171.111 105.701 C 165.825 114.061, 161.245 120.924, 160.934 120.951 C 160.623 120.978, 159.328 119.149, 158.057 116.888 C 156.163 113.517, 155.994 112.618, 157.123 111.903 C 157.880 111.423, 158.844 111.024, 159.265 111.015 C 160.885 110.983, 163.993 104.329, 163.996 100.885 C 164.004 93.195, 158.385 90.015, 144.769 90.006 C 137.573 90, 137.001 90.156, 136.508 92.250 M 206.535 92.144 C 205.187 97.847, 201 119.403, 201 120.638 C 201 121.707, 203.427 122, 212.288 122 C 222.009 122, 224.194 121.688, 228.025 119.750 C 233.707 116.877, 235.414 112.371, 232.366 108.289 C 230.417 105.678, 230.418 105.673, 232.708 103.383 C 235.803 100.288, 235.687 95.994, 232.424 92.929 C 230.071 90.718, 228.870 90.478, 218.470 90.148 C 207.210 89.791, 207.086 89.812, 206.535 92.144 M 215.627 99.529 C 214.650 102.076, 214.742 102.134, 219.250 101.807 C 222.224 101.592, 223.500 101.050, 223.500 100 C 223.500 97.775, 216.462 97.354, 215.627 99.529 M 145.628 100.528 C 144.216 104.207, 144.913 106, 147.750 105.985 C 151.615 105.963, 153.230 104.663, 152.837 101.887 C 152.576 100.036, 151.799 99.432, 149.378 99.196 C 147.211 98.985, 146.063 99.393, 145.628 100.528 M 181.683 104.959 C 179.479 108.691, 179.541 109, 182.500 109 C 184.600 109, 185 108.529, 185 106.059 C 185 102.003, 183.687 101.567, 181.683 104.959 M 213 112.055 C 213 113.882, 213.526 114.076, 217.741 113.805 C 221.313 113.575, 222.564 113.069, 222.814 111.750 C 223.095 110.270, 222.365 110, 218.073 110 C 213.622 110, 213 110.252, 213 112.055 M 183.409 141.443 C 181.720 142.678, 181.741 142.822, 183.812 144.115 C 186.608 145.861, 186.648 147.340, 183.875 146.460 C 182.445 146.006, 181.973 146.148, 182.434 146.893 C 183.327 148.338, 186.685 148.318, 187.585 146.863 C 187.977 146.228, 187.252 144.944, 185.945 143.958 L 183.602 142.191 186.051 141.837 C 187.983 141.557, 188.151 141.340, 186.847 140.810 C 185.938 140.440, 184.391 140.725, 183.409 141.443 M 257.250 140.731 C 255.515 141.336, 255.682 143.941, 257.500 144.638 C 259.907 145.562, 259.229 147.204, 256.750 146.455 C 255.015 145.931, 254.762 146.051, 255.644 146.981 C 257.166 148.586, 260.398 147.886, 260.787 145.868 C 260.973 144.903, 260.176 143.971, 258.798 143.540 L 256.500 142.822 259 142.115 C 260.795 141.607, 261.077 141.251, 260 140.851 C 259.175 140.545, 257.938 140.491, 257.250 140.731 M 278.250 140.731 C 276.305 141.409, 276.779 143.795, 279 144.500 C 280.100 144.849, 281 145.607, 281 146.184 C 281 146.761, 280.100 146.998, 279 146.710 C 277.900 146.423, 277 146.595, 277 147.094 C 277 147.592, 278.125 148, 279.500 148 C 282.771 148, 282.963 144.453, 279.750 143.391 L 277.500 142.647 280 142.028 C 281.771 141.589, 282.062 141.246, 281 140.851 C 280.175 140.545, 278.938 140.491, 278.250 140.731 M 288.502 141.375 C 285.969 143.227, 286.902 147.416, 289.944 147.845 C 293.013 148.278, 295.332 145.489, 293.989 142.980 C 292.690 140.552, 290.502 139.912, 288.502 141.375 M 192.660 141.769 C 193.298 142.174, 194.018 143.855, 194.260 145.503 L 194.700 148.500 194.850 145.323 C 194.949 143.222, 195.593 141.992, 196.750 141.689 C 197.713 141.438, 196.925 141.187, 195 141.131 C 193.075 141.076, 192.022 141.363, 192.660 141.769 M 202.327 144 C 202.476 147.021, 202.842 147.500, 205 147.500 C 207.158 147.500, 207.524 147.021, 207.673 144 C 207.841 140.593, 207.828 140.580, 207.163 143.500 C 206.782 145.175, 205.826 146.500, 205 146.500 C 204.174 146.500, 203.218 145.175, 202.837 143.500 C 202.172 140.580, 202.159 140.593, 202.327 144 M 213 144.500 C 213 147.989, 213.123 148.115, 216.250 147.813 C 219.125 147.536, 219.500 147.154, 219.500 144.500 C 219.500 141.846, 219.125 141.464, 216.250 141.187 C 213.123 140.885, 213 141.011, 213 144.500 M 225 144.500 C 225 147.685, 225.248 147.988, 227.750 147.864 C 230.108 147.747, 230.179 147.666, 228.250 147.294 C 227.012 147.056, 226 146.473, 226 146 C 226 145.527, 227.012 144.944, 228.250 144.706 L 230.500 144.272 228.250 144.136 C 227.012 144.061, 226 143.581, 226 143.070 C 226 142.558, 227.012 141.944, 228.250 141.706 C 230.179 141.334, 230.108 141.253, 227.750 141.136 C 225.248 141.012, 225 141.315, 225 144.500 M 235.150 144.750 C 235.281 148.026, 235.354 148.132, 235.732 145.587 L 236.164 142.673 238.546 145.587 L 240.928 148.500 240.864 144.500 C 240.812 141.185, 240.679 140.928, 240.089 143 L 239.377 145.500 238.154 143.250 C 236.315 139.871, 234.981 140.537, 235.150 144.750 M 246.660 141.769 C 247.298 142.174, 248.018 143.855, 248.260 145.503 L 248.700 148.500 248.850 145.323 C 248.949 143.222, 249.593 141.992, 250.750 141.689 C 251.713 141.438, 250.925 141.187, 249 141.131 C 247.075 141.076, 246.022 141.363, 246.660 141.769 M 299.160 144.250 C 299.011 147.743, 299.189 147.991, 301.750 147.864 C 304.018 147.751, 304.116 147.653, 302.309 147.302 C 300.717 146.993, 300.008 146.005, 299.719 143.688 C 299.336 140.625, 299.314 140.647, 299.160 144.250 M 308.327 144 C 308.476 147.021, 308.842 147.500, 311 147.500 C 313.158 147.500, 313.524 147.021, 313.673 144 C 313.841 140.593, 313.828 140.580, 313.163 143.500 C 312.782 145.175, 311.826 146.500, 311 146.500 C 310.174 146.500, 309.218 145.175, 308.837 143.500 C 308.172 140.580, 308.159 140.593, 308.327 144 M 319.660 141.769 C 320.298 142.174, 321.018 143.855, 321.260 145.503 L 321.700 148.500 321.850 145.333 C 321.933 143.592, 322.563 141.940, 323.250 141.662 C 323.938 141.385, 323.150 141.129, 321.500 141.094 C 319.850 141.059, 319.022 141.363, 319.660 141.769 M 329.252 144.500 C 329.263 146.700, 329.468 147.482, 329.707 146.238 C 329.946 144.994, 329.937 143.194, 329.687 142.238 C 329.437 141.282, 329.241 142.300, 329.252 144.500 M 335.095 142.386 C 334.173 143.497, 334.140 144.393, 334.966 145.936 C 336.953 149.648, 342.422 148.017, 341.837 143.887 C 341.434 141.034, 337.031 140.053, 335.095 142.386 M 347.150 144.750 C 347.281 148.026, 347.354 148.132, 347.732 145.587 L 348.164 142.673 350.546 145.587 L 352.928 148.500 352.864 144.500 C 352.812 141.185, 352.679 140.928, 352.089 143 L 351.377 145.500 350.154 143.250 C 348.315 139.871, 346.981 140.537, 347.150 144.750 M 215 144.500 C 215 146.482, 215.439 147.062, 216.750 146.810 C 217.713 146.624, 218.500 145.585, 218.500 144.500 C 218.500 143.415, 217.713 142.376, 216.750 142.190 C 215.439 141.938, 215 142.518, 215 144.500 M 288.364 143.493 C 288.018 144.396, 288.214 145.614, 288.800 146.200 C 290.324 147.724, 293.210 146.331, 292.812 144.265 C 292.369 141.963, 289.165 141.407, 288.364 143.493 M 336.170 144.170 C 336.390 145.723, 337.167 146.500, 338.500 146.500 C 341.478 146.500, 341.181 142.596, 338.170 142.170 C 336.231 141.895, 335.895 142.231, 336.170 144.170" stroke="none" fill="#f3f3f3" fill-rule="evenodd"/></svg>